#!OML:ASF E:\Steps\Project 1\Capture day 1\Session 2\Subject.ASF
:FULLY-SPECIFIED
:DEGREES
250
root 15.6954 16.4669 21.632 -158.071 -20.1839 165.444
lowerback -20.0189 0.11188 -5.52362
upperback 2.1155 1.7233 -2.50969
thorax 13.6403 0.438943 0.839973
lowerneck -2.79451 3.60114 1.03879
upperneck 19.604 3.97714 -0.370466
head 6.43519 1.60319 -0.0811046
rclavicle 4.85035e-014 -1.51076e-014
rhumerus -31.0724 -16.0408 -77.2343
rradius 32.6452
rwrist -0.547591
rhand -9.23444 -53.5818
rfingers 7.12502
rthumb 16.7208 -82.8817
lclavicle 4.85035e-014 -1.51076e-014
lhumerus -35.7081 13.3042 73.9614
lradius 19.4864
lwrist -10.1431
lhand -21.2251 -14.4267
lfingers 7.12502
lthumb 5.15697 15.4906
rfemur -18.4502 3.33658 7.22682
rtibia 21.7127
rfoot -28.6729 -19.1418
rtoes -4.33786
lfemur -68.2321 2.96495 -3.2441
ltibia 62.5507
lfoot -1.96774 7.82295
ltoes -36.2249
251
root 15.6464 16.4661 21.6087 -158.043 -20.0689 164.941
lowerback -19.9771 0.0786158 -5.78486
upperback 2.12574 1.74365 -2.58118
thorax 13.6232 0.429428 0.912237
lowerneck -2.83383 3.51858 1.09049
upperneck 19.5974 3.90917 -0.638619
head 6.44602 1.55413 -0.178657
rclavicle -3.67752e-014 -2.22639e-014
rhumerus -30.9873 -15.9504 -77.0518
rradius 32.5958
rwrist -0.537521
rhand -9.06205 -53.6959
rfingers 7.12502
rthumb 16.8867 -82.9817
lclavicle -3.67752e-014 -2.22639e-014
lhumerus -35.8188 12.7887 74.2706
lradius 19.8648
lwrist -9.52436
lhand -20.9714 -14.1996
lfingers 7.12502
lthumb 5.40194 15.7116
rfemur -18.1768 3.24488 6.57938
rtibia 21.905
rfoot -28.8889 -19.2446
rtoes -5.3102
lfemur -67.6607 2.69457 -2.91237
ltibia 61.1015
lfoot -1.19885 7.67375
ltoes -35.3122
252
root 15.6029 16.4594 21.5794 -158.102 -19.942 164.572
lowerback -19.9428 0.050007 -5.94608
upperback 2.17485 1.75217 -2.67352
thorax 13.6601 0.421653 0.900196
lowerneck -2.87169 3.48939 1.11445
upperneck 19.6375 3.87207 -0.682935
head 6.4665 1.53302 -0.198432
rclavicle 2.00773e-014 -5.40694e-014
rhumerus -30.9637 -15.6882 -77.0817
rradius 32.7958
rwrist -0.862178
rhand -9.19355 -53.9303
rfingers 7.12502
rthumb 16.7601 -83.2269
lclavicle 2.00773e-014 -5.40694e-014
lhumerus -35.8634 12.5711 74.3157
lradius 20.1791
lwrist -9.13889
lhand -20.9125 -14.0515
lfingers 7.12502
lthumb 5.45882 15.8582
rfemur -18.0158 3.21021 6.10707
rtibia 22.4042
rfoot -29.2502 -19.4696
rtoes -6.59573
lfemur -67.0352 2.55241 -2.4664
ltibia 59.7567
lfoot -0.685684 7.47727
ltoes -33.755
253
root 15.5553 16.4541 21.5573 -158.074 -19.9236 164.24
lowerback -19.9615 -0.0345921 -5.9362
upperback 2.23763 1.65004 -2.75507
thorax 13.7542 0.375174 0.769409
lowerneck -2.89739 3.59441 0.989736
upperneck 19.5214 4.02948 -0.616957
head 6.43112 1.61111 -0.146274
rclavicle 7.35503e-015 6.36111e-014
rhumerus -30.8469 -15.3491 -77.1529
rradius 32.9981
rwrist -1.099
rhand -9.69542 -54.0088
rfingers 7.12502
rthumb 16.2769 -83.3456
lclavicle 7.35503e-015 6.36111e-014
lhumerus -35.8448 12.5469 74.3491
lradius 20.4072
lwrist -8.87254
lhand -21.0357 -14.0437
lfingers 7.12502
lthumb 5.33984 15.869
rfemur -17.8293 3.0475 5.64243
rtibia 22.6309
rfoot -29.4507 -19.5888
rtoes -7.35478
lfemur -66.5704 2.32367 -2.01597
ltibia 58.3954
lfoot -0.0859678 7.17199
ltoes -34.4218
254
root 15.5022 16.447 21.5218 -158.15 -19.476 164.231
lowerback -20.1541 0.126144 -5.77603
upperback 2.18146 1.84022 -2.79813
thorax 13.7964 0.474746 0.691205
lowerneck -2.74445 3.67503 0.977377
upperneck 19.7175 4.09905 -0.527661
head 6.46568 1.63901 -0.11385
rclavicle 1.86858e-014 -1.98785e-014
rhumerus -31.0205 -15.3025 -77.0056
rradius 33.1039
rwrist -0.870258
rhand -9.56669 -54.1823
rfingers 7.12502
rthumb 16.4009 -83.5089
lclavicle 1.86858e-014 -1.98785e-014
lhumerus -36.2066 12.1634 74.4395
lradius 20.789
lwrist -8.54776
lhand -21.1773 -14.1202
lfingers 7.12502
lthumb 5.20314 15.7959
rfemur -17.8444 3.26948 5.37172
rtibia 22.8913
rfoot -29.5932 -19.4369
rtoes -7.88926
lfemur -65.8157 2.58994 -1.35614
ltibia 56.8324
lfoot 0.587983 6.94908
ltoes -36.3446
255
root 15.4539 16.4381 21.4981 -158.369 -19.3028 164.265
lowerback -19.9857 0.246521 -5.58821
upperback 2.15226 1.94008 -2.78667
thorax 13.662 0.53965 0.62855
lowerneck -2.69271 3.69088 0.957584
upperneck 19.9171 4.08519 -0.438527
head 6.5181 1.62783 -0.0836214
rclavicle 3.35946e-014 1.27222e-014
rhumerus -31.1389 -15.2245 -76.8784
rradius 33.2462
rwrist -0.741524
rhand -9.33418 -54.12
rfingers 7.12502
rthumb 16.6247 -83.428
lclavicle 3.35946e-014 1.27222e-014
lhumerus -36.5279 11.8284 74.5366
lradius 21.251
lwrist -8.38181
lhand -21.2335 -14.2086
lfingers 7.12502
lthumb 5.14894 15.7088
rfemur -17.7915 3.39378 5.24568
rtibia 23.4292
rfoot -29.8791 -19.3068
rtoes -8.00945
lfemur -65.1025 2.56199 -0.55421
ltibia 55.3654
lfoot 1.20887 6.71662
ltoes -36.991
256
root 15.4037 16.4269 21.4672 -158.405 -19.0561 163.959
lowerback -20.1485 0.278835 -5.65877
upperback 2.21669 2.02807 -2.91139
thorax 13.833 0.572487 0.554556
lowerneck -2.56528 3.7642 1.04621
upperneck 19.7839 4.19966 -0.52313
head 6.45828 1.68695 -0.120675
rclavicle 1.74931e-014 -4.92986e-014
rhumerus -31.058 -15.1542 -76.9368
rradius 33.306
rwrist -0.768265
rhand -9.59673 -53.9389
rfingers 7.12502
rthumb 16.372 -83.2679
lclavicle 1.74931e-014 -4.92986e-014
lhumerus -36.628 11.3897 74.6302
lradius 21.665
lwrist -8.05085
lhand -21.1429 -14.0294
lfingers 7.12502
lthumb 5.23633 15.8859
rfemur -17.6083 3.54193 4.72774
rtibia 23.6597
rfoot -30.0454 -19.3091
rtoes -7.71907
lfemur -64.3754 2.36137 -0.0821173
ltibia 53.8457
lfoot 1.73883 6.41304
ltoes -36.9533
257
root 15.3409 16.4194 21.4417 -158.24 -18.8918 163.532
lowerback -20.2985 0.215685 -5.71167
upperback 2.16895 1.97022 -3.01512
thorax 13.8709 0.542377 0.449547
lowerneck -2.3976 3.96137 0.948646
upperneck 19.728 4.49054 -0.598078
head 6.41321 1.81446 -0.113453
rclavicle 6.65929e-014 -1.59028e-015
rhumerus -31.0024 -14.9281 -76.8672
rradius 33.2701
rwrist -0.666716
rhand -9.62473 -54.3652
rfingers 7.12502
rthumb 16.345 -83.6964
lclavicle 6.65929e-014 -1.59028e-015
lhumerus -36.812 10.9757 74.8083
lradius 22.0219
lwrist -7.4146
lhand -20.9048 -13.6362
lfingers 7.12502
lthumb 5.46627 16.2733
rfemur -17.4476 3.20096 4.02948
rtibia 23.7426
rfoot -30.2237 -19.0921
rtoes -7.65054
lfemur -63.8438 2.03361 0.188482
ltibia 52.3299
lfoot 2.35133 6.05617
ltoes -37.0949
258
root 15.2813 16.4071 21.4139 -158.242 -18.6669 163.564
lowerback -20.4138 0.270063 -5.42445
upperback 2.13124 1.97843 -3.00461
thorax 13.9015 0.568461 0.303137
lowerneck -2.35465 4.08158 0.858259
upperneck 19.7463 4.67057 -0.654324
head 6.41224 1.88913 -0.105902
rclavicle 1.03368e-014 3.18055e-015
rhumerus -30.9604 -14.55 -76.8323
rradius 33.3475
rwrist -0.667801
rhand -9.4817 -55.4806
rfingers 7.12502
rthumb 16.4827 -84.8005
lclavicle 1.03368e-014 3.18055e-015
lhumerus -36.8966 10.98 74.7933
lradius 22.2164
lwrist -7.24986
lhand -20.7756 -13.7731
lfingers 7.12502
lthumb 5.59105 16.1331
rfemur -17.5135 3.08756 3.85257
rtibia 24.13
rfoot -30.5292 -18.8874
rtoes -7.75716
lfemur -63.2524 2.0518 0.943032
ltibia 50.8722
lfoot 2.86162 5.88252
ltoes -35.3058
259
root 15.23 16.3962 21.383 -158.43 -18.4832 163.741
lowerback -20.4324 0.359272 -5.12013
upperback 2.16331 2.02366 -2.92962
thorax 13.9541 0.611518 0.23083
lowerneck -2.40472 4.06544 0.856552
upperneck 19.846 4.67269 -0.828941
head 6.4571 1.87233 -0.1596
rclavicle 7.55382e-015 1.11319e-014
rhumerus -30.8953 -14.1522 -76.8179
rradius 33.504
rwrist -0.878787
rhand -10.0706 -52.8981
rfingers 7.12502
rthumb 15.9156 -82.2641
lclavicle 7.55382e-015 1.11319e-014
lhumerus -36.9206 11.1674 74.7102
lradius 22.1373
lwrist -8.14103
lhand -21.4311 -14.8634
lfingers 7.12502
lthumb 4.95813 15.0586
rfemur -17.3893 3.3121 3.86396
rtibia 24.3428
rfoot -30.7001 -19.0229
rtoes -8.03442
lfemur -62.5242 1.89962 1.97823
ltibia 49.4646
lfoot 3.18577 5.90421
ltoes -32.0164
